<mxfile host="65bd71144e">
    <diagram id="lfSZEURS3zvEZ1dNTjcI" name="Page-1">
        <mxGraphModel dx="2745" dy="1733" grid="1" gridSize="10" guides="1" tooltips="1" connect="1" arrows="1" fold="1" page="1" pageScale="1" pageWidth="850" pageHeight="1100" math="0" shadow="0">
            <root>
                <mxCell id="0"/>
                <mxCell id="1" parent="0"/>
                <mxCell id="42" value="" style="whiteSpace=wrap;html=1;strokeColor=none;fillColor=#2e8555;rounded=1;" parent="1" vertex="1">
                    <mxGeometry x="40" y="40" width="320" height="320" as="geometry"/>
                </mxCell>
                <mxCell id="49" value="" style="endArrow=none;html=1;strokeWidth=30;strokeColor=#FFFFFF;jumpSize=6;shadow=0;arcSize=60;" parent="1" edge="1">
                    <mxGeometry width="50" height="50" relative="1" as="geometry">
                        <mxPoint x="50" y="280" as="sourcePoint"/>
                        <mxPoint x="350" y="200" as="targetPoint"/>
                        <Array as="points">
                            <mxPoint x="160" y="280"/>
                            <mxPoint x="240" y="200"/>
                        </Array>
                    </mxGeometry>
                </mxCell>
                <mxCell id="50" value="" style="endArrow=none;html=1;strokeWidth=30;strokeColor=#FFFFFF;jumpSize=6;shadow=0;arcSize=60;" parent="1" edge="1">
                    <mxGeometry width="50" height="50" relative="1" as="geometry">
                        <mxPoint x="50" y="200" as="sourcePoint"/>
                        <mxPoint x="350" y="200" as="targetPoint"/>
                    </mxGeometry>
                </mxCell>
                <mxCell id="51" value="" style="endArrow=none;html=1;strokeWidth=30;strokeColor=#FFFFFF;jumpSize=6;shadow=0;arcSize=60;" parent="1" edge="1">
                    <mxGeometry width="50" height="50" relative="1" as="geometry">
                        <mxPoint x="50" y="120" as="sourcePoint"/>
                        <mxPoint x="350" y="200" as="targetPoint"/>
                        <Array as="points">
                            <mxPoint x="160" y="120"/>
                            <mxPoint x="240" y="200"/>
                        </Array>
                    </mxGeometry>
                </mxCell>
                <mxCell id="53" value="&lt;font style=&quot;color: rgb(0, 0, 0); font-size: 120px;&quot;&gt;Invoice Collector&lt;/font&gt;" style="text;html=1;align=center;verticalAlign=middle;whiteSpace=wrap;rounded=0;fontColor=#B85450;fontStyle=1" vertex="1" parent="1">
                    <mxGeometry x="400" y="120" width="970" height="160" as="geometry"/>
                </mxCell>
            </root>
        </mxGraphModel>
    </diagram>
</mxfile>